<?xml version="1.0" encoding="iso-8859-1"?>
<!-- Generator: Adobe Illustrator 19.0.0, SVG Export Plug-In . SVG Version: 6.00 Build 0)  -->
<svg version="1.1" id="Layer_1" xmlns="http://www.w3.org/2000/svg" xmlns:xlink="http://www.w3.org/1999/xlink" x="0px" y="0px"
	 viewBox="0 0 512 512" style="enable-background:new 0 0 512 512;" xml:space="preserve">
<rect x="46.265" y="101.783" style="fill:#88888F;" width="49.349" height="40.096"/>
<rect x="70.94" y="101.783" style="fill:#797781;" width="24.675" height="40.096"/>
<polygon style="fill:#EDEDED;" points="317.687,55.518 194.313,55.518 120.289,129.542 120.289,141.88 391.711,141.88 
	391.711,129.542 "/>
<polygon style="fill:#D8D8DA;" points="317.687,55.518 268.337,55.518 342.361,129.542 342.361,141.88 391.711,141.88 
	391.711,129.542 "/>
<rect x="9.253" y="129.542" style="fill:#797781;" width="493.494" height="296.096"/>
<rect x="453.398" y="129.542" style="fill:#58575D;" width="49.349" height="296.096"/>
<circle style="fill:#88888F;" cx="256" cy="277.59" r="160.386"/>
<circle style="fill:#B4D8F1;" cx="256" cy="277.59" r="111.036"/>
<path style="fill:#98C8ED;" d="M194.313,277.59c0-52.842,36.915-97.059,86.361-108.28c-7.937-1.801-16.194-2.756-24.675-2.756
	c-61.324,0-111.036,49.712-111.036,111.036S194.676,388.627,256,388.627c8.481,0,16.738-0.955,24.675-2.756
	C231.228,374.65,194.313,330.432,194.313,277.59z"/>
<path style="fill:#E07188;" d="M447.229,200.482c-8.504,0-15.422-6.918-15.422-15.422c0-8.504,6.918-15.422,15.422-15.422
	c8.504,0,15.422,6.918,15.422,15.422C462.651,193.564,455.733,200.482,447.229,200.482z"/>
<g>
	<path style="fill:#F8F8F9;" d="M194.313,299.181c-2.368,0-4.736-0.903-6.542-2.711c-3.614-3.614-3.614-9.473,0-13.085
		l74.024-74.024c3.614-3.614,9.473-3.614,13.085,0c3.614,3.614,3.614,9.473,0,13.085l-74.024,74.024
		C199.05,298.278,196.681,299.181,194.313,299.181z"/>
	<path style="fill:#F8F8F9;" d="M243.663,348.53c-2.368,0-4.736-0.903-6.542-2.711c-3.614-3.614-3.614-9.473,0-13.085l74.024-74.024
		c3.614-3.614,9.473-3.614,13.085,0c3.614,3.614,3.614,9.473,0,13.085l-74.024,74.024C248.399,347.627,246.03,348.53,243.663,348.53
		z"/>
</g>
<g>
	<path style="fill:#2E2D31;" d="M502.747,178.892c-5.11,0-9.253,4.143-9.253,9.253v237.494H353.422
		c43.643-30.725,72.217-81.483,72.217-138.795s-28.573-108.07-72.217-138.795h149.325c5.11,0,9.253-4.143,9.253-9.253
		c0-5.11-4.143-9.253-9.253-9.253H319.488c-19.621-7.948-41.05-12.337-63.488-12.337s-43.868,4.39-63.489,12.337h-49.884
		l55.518-55.518h115.708l29.674,29.674c3.614,3.614,9.473,3.614,13.086,0c3.614-3.614,3.614-9.473,0-13.086l-32.384-32.383
		c-1.735-1.736-4.089-2.711-6.542-2.711H194.313c-2.454,0-4.808,0.975-6.542,2.711l-71.314,71.314h-11.59v-27.759
		c0-5.11-4.143-9.253-9.253-9.253H46.265c-5.11,0-9.253,4.143-9.253,9.253v27.759H9.253c-5.11,0-9.253,4.143-9.253,9.253v296.096
		c0,5.11,4.143,9.253,9.253,9.253h183.258c19.621,7.948,41.05,12.337,63.489,12.337s43.867-4.39,63.488-12.337h183.259
		c5.11,0,9.253-4.143,9.253-9.253V188.145C512,183.034,507.857,178.892,502.747,178.892z M55.518,111.036h30.843v18.506H55.518
		V111.036z M18.506,425.639v-277.59h140.072c-43.643,30.725-72.217,81.483-72.217,138.795s28.573,108.07,72.217,138.795H18.506z
		 M104.867,286.843c0-83.335,67.797-151.133,151.133-151.133s151.133,67.797,151.133,151.133S339.335,437.976,256,437.976
		S104.867,370.178,104.867,286.843z"/>
	<path style="fill:#2E2D31;" d="M256,166.554c-66.328,0-120.289,53.961-120.289,120.289S189.672,407.133,256,407.133
		s120.289-53.961,120.289-120.289S322.328,166.554,256,166.554z M256,388.627c-56.124,0-101.783-45.659-101.783-101.783
		S199.876,185.06,256,185.06s101.783,45.659,101.783,101.783S312.124,388.627,256,388.627z"/>
</g>
<g>
</g>
<g>
</g>
<g>
</g>
<g>
</g>
<g>
</g>
<g>
</g>
<g>
</g>
<g>
</g>
<g>
</g>
<g>
</g>
<g>
</g>
<g>
</g>
<g>
</g>
<g>
</g>
<g>
</g>
</svg>
